<?xml version="1.0" encoding="utf-8"?>
<!-- Generator: Adobe Illustrator 23.0.0, SVG Export Plug-In . SVG Version: 6.00 Build 0)  -->
<svg version="1.1" id="Layer_1" xmlns="http://www.w3.org/2000/svg" xmlns:xlink="http://www.w3.org/1999/xlink" x="0px" y="0px"
	 viewBox="0 0 277.18 240.98" style="enable-background:new 0 0 277.18 240.98;" xml:space="preserve">
<style type="text/css">
	.st0{opacity:0.8;fill:#006AD0;}
	.st1{opacity:0.9;fill:#006AD0;}
</style>
<g>
	<path class="st0" d="M72.28,13.94c0,0-173.19,84,16.61,185.03c189.8,101.04,182.38-24.19,136.28-106.71
		C178.28,8.33,149.78-19.83,72.28,13.94z"/>
	<path class="st1" d="M24.08,107.33c0,0-76.32,169.37,126.79,126.79C353.97,191.53,271,103.35,185.79,70.75
		C99.12,37.58,60.59,34.35,24.08,107.33z"/>
	<path class="st0" d="M21.86,125.06c0,0,7.29,179.14,164.18,54.66c156.9-124.48,47.21-164.74-40.41-156.08
		C56.51,32.45,21.86,46.31,21.86,125.06z"/>
</g>
</svg>
